<svg width="0" height="0" class="hidden">
  <symbol xmlns="http://www.w3.org/2000/svg" viewBox="0 0 30 32" id="whats-app">
    <path d="M26.6169 3.03694C25.8322 2.32434 22.6566 0.0525193 15.5762 0.0220659C15.5762 0.0220659 7.22928 -0.471278 3.16395 3.20748C0.902677 5.43667 0.105673 8.70735 0.0191764 12.7576C-0.0673201 16.8079 -0.172352 24.3969 7.24782 26.4555H7.254L7.24782 29.5983C7.24782 29.5983 7.19839 30.8713 8.051 31.1271C9.0766 31.4438 9.68208 30.4754 10.6644 29.4339C11.2019 28.8614 11.9433 28.0208 12.5056 27.3813C17.5842 27.8016 21.4827 26.8393 21.9275 26.6992C22.9531 26.3703 28.7546 25.6394 29.6937 18.0504C30.6699 10.2178 29.2241 5.27222 26.6169 3.03694ZM27.4757 17.4779C26.6787 23.8122 21.977 24.2142 21.112 24.4883C20.7413 24.604 17.3123 25.4445 13.006 25.1704C13.006 25.1704 9.79329 28.9893 8.7924 29.982C8.46495 30.3048 8.10661 30.2744 8.11279 29.6349C8.11279 29.2146 8.1375 24.4152 8.1375 24.4152C8.13132 24.4152 8.13132 24.4152 8.1375 24.4152C1.84796 22.6976 2.21866 16.2354 2.28662 12.8551C2.35458 9.47478 3.00331 6.70352 4.91859 4.83978C8.35992 1.764 15.4465 2.2208 15.4465 2.2208C21.4333 2.24516 24.3 4.02363 24.9673 4.62052C27.1729 6.48426 28.2974 10.9426 27.4757 17.4779ZM18.8878 12.5567C18.9125 13.0805 18.1155 13.117 18.0908 12.5932C18.0228 11.2533 17.3865 10.6015 16.0766 10.5285C15.5453 10.498 15.5947 9.71231 16.1199 9.74277C17.8437 9.83413 18.8013 10.8086 18.8878 12.5567ZM20.142 13.2449C20.2038 10.6625 18.5665 8.64036 15.4588 8.415C14.9337 8.37846 14.9893 7.59276 15.5144 7.62931C19.0979 7.88511 21.007 10.3153 20.939 13.2632C20.9328 13.787 20.1296 13.7626 20.142 13.2449ZM23.0458 14.061C23.052 14.5848 22.2488 14.5909 22.2488 14.0671C22.2117 9.10325 18.8569 6.39899 14.7854 6.36854C14.2602 6.36245 14.2602 5.58284 14.7854 5.58284C19.3388 5.6133 23.0026 8.71344 23.0458 14.061ZM22.3477 20.036V20.0482C21.6804 21.2054 20.4324 22.4844 19.1473 22.0764L19.1349 22.0581C17.8313 21.6987 14.7607 20.1395 12.8207 18.6169C11.8198 17.8373 10.9054 16.9176 10.2011 16.0344C9.56469 15.2487 8.92215 14.3169 8.29813 13.1962C6.98215 10.8513 6.69177 9.80367 6.69177 9.80367C6.27782 8.53681 7.56909 7.3065 8.74915 6.64871H8.76151C9.32992 6.35636 9.87361 6.45381 10.2381 6.88624C10.2381 6.88624 11.0042 7.78766 11.3317 8.23228C11.6406 8.64645 12.0546 9.31033 12.2708 9.68186C12.6477 10.3457 12.4129 11.0218 12.0422 11.302L11.3008 11.8867C10.9239 12.1851 10.9734 12.7394 10.9734 12.7394C10.9734 12.7394 12.0731 16.8384 16.1817 17.8738C16.1817 17.8738 16.7439 17.9225 17.0466 17.551L17.6398 16.8201C17.924 16.4547 18.6098 16.2232 19.2832 16.5948C20.1914 17.1003 21.3468 17.886 22.1129 18.5986C22.5454 18.9458 22.6442 19.4756 22.3477 20.036Z"></path>
  </symbol>
  <symbol xmlns="http://www.w3.org/2000/svg" viewBox="0 0 30 40" id="location">
    <path d="M13.4584 39.193C2.10703 22.7368 0 21.0479 0 15C0 6.7157 6.7157 0 15 0C23.2843 0 30 6.7157 30 15C30 21.0479 27.893 22.7368 16.5416 39.193C15.7966 40.2691 14.2033 40.269 13.4584 39.193ZM15 21.25C18.4518 21.25 21.25 18.4518 21.25 15C21.25 11.5482 18.4518 8.75 15 8.75C11.5482 8.75 8.75 11.5482 8.75 15C8.75 18.4518 11.5482 21.25 15 21.25Z"></path>
  </symbol>
  <symbol xmlns="http://www.w3.org/2000/svg" viewBox="0 0 30 26" id="telegram">
    <path d="M29.9145 2.29042L25.3873 23.6405C25.0458 25.1474 24.1551 25.5224 22.8893 24.8125L15.9914 19.7295L12.663 22.9307C12.2946 23.299 11.9866 23.6071 11.2767 23.6071L11.7723 16.5819L24.5569 5.02951C25.1128 4.53393 24.4363 4.25935 23.693 4.75493L7.888 14.7067L1.08382 12.5771C-0.396218 12.115 -0.423006 11.097 1.39189 10.3871L28.0059 0.133981C29.2381 -0.328114 30.3163 0.408558 29.9145 2.29042Z"></path>
  </symbol>
  <symbol xmlns="http://www.w3.org/2000/svg" viewBox="0 0 30 30" id="phone">
    <path d="M29.1445 21.1991L22.5818 18.3865C22.3015 18.267 21.9899 18.2419 21.694 18.3148C21.3981 18.3877 21.1339 18.5548 20.9412 18.7908L18.0349 22.3417C13.4737 20.1911 9.80302 16.5204 7.65248 11.9593L11.2033 9.05295C11.4399 8.86057 11.6073 8.59636 11.6802 8.30033C11.7532 8.00429 11.7277 7.69255 11.6076 7.4123L8.79508 0.849679C8.6633 0.547569 8.43024 0.300907 8.13609 0.152225C7.84193 0.00354214 7.50512 -0.0378408 7.18372 0.0352115L1.08986 1.44149C0.779995 1.51304 0.503531 1.68751 0.305592 1.93643C0.107653 2.18534 -7.13807e-05 2.494 3.54862e-08 2.81202C3.54862e-08 17.8416 12.1819 30 27.188 30C27.5061 30.0002 27.8149 29.8925 28.0639 29.6946C28.313 29.4966 28.4875 29.2201 28.5591 28.9101L29.9654 22.8163C30.0379 22.4933 29.9957 22.1552 29.8459 21.86C29.696 21.5648 29.448 21.3311 29.1445 21.1991Z"></path>
  </symbol>
  <symbol xmlns="http://www.w3.org/2000/svg" viewBox="0 0 35 27" id="mail">
    <path d="M34.3369 8.66797C34.6035 8.45605 35 8.6543 35 8.98926V22.9688C35 24.7803 33.5303 26.25 31.7188 26.25H3.28125C1.46973 26.25 0 24.7803 0 22.9688V8.99609C0 8.6543 0.389648 8.46289 0.663086 8.6748C2.19434 9.86426 4.22461 11.375 11.1973 16.4404C12.6396 17.4932 15.0732 19.708 17.5 19.6943C19.9404 19.7148 22.4219 17.4521 23.8096 16.4404C30.7822 11.375 32.8057 9.85742 34.3369 8.66797ZM17.5 17.5C19.0859 17.5273 21.3691 15.5039 22.5176 14.6699C31.5889 8.08691 32.2793 7.51269 34.3711 5.87207C34.7676 5.56445 35 5.08594 35 4.58008V3.28125C35 1.46973 33.5303 0 31.7188 0H3.28125C1.46973 0 0 1.46973 0 3.28125V4.58008C0 5.08594 0.232422 5.55762 0.628906 5.87207C2.7207 7.50586 3.41113 8.08691 12.4824 14.6699C13.6309 15.5039 15.9141 17.5273 17.5 17.5Z"></path>
  </symbol>
  <symbol xmlns="http://www.w3.org/2000/svg" viewBox="0 0 30 30" id="viber">
    <path d="M25.5067 4.35937C22.7009 1.54687 18.9643 0 14.9933 0C6.79687 0 0.127232 6.66964 0.127232 14.8661C0.127232 17.4844 0.810268 20.0424 2.10938 22.2991L0 30L7.8817 27.9308C10.0513 29.1161 12.4955 29.7388 14.9866 29.7388H14.9933C23.183 29.7388 30 23.0692 30 14.8728C30 10.9018 28.3125 7.17187 25.5067 4.35937ZM14.9933 27.2344C12.7701 27.2344 10.5937 26.6384 8.69866 25.5134L8.25 25.2455L3.57589 26.471L4.82143 21.9107L4.52679 21.442C3.28795 19.4732 2.63839 17.2031 2.63839 14.8661C2.63839 8.0558 8.18303 2.51116 15 2.51116C18.3013 2.51116 21.4018 3.79687 23.7321 6.13393C26.0625 8.47098 27.4955 11.5714 27.4888 14.8728C27.4888 21.6897 21.8036 27.2344 14.9933 27.2344ZM21.7701 17.9799C21.4018 17.7924 19.5737 16.8951 19.2321 16.7746C18.8906 16.6473 18.6429 16.5871 18.3951 16.9621C18.1473 17.3371 17.4375 18.1674 17.2165 18.4219C17.0022 18.6696 16.7812 18.7031 16.4129 18.5156C14.2299 17.4241 12.7969 16.567 11.3571 14.096C10.9754 13.4397 11.7388 13.4866 12.4487 12.067C12.5692 11.8192 12.5089 11.6049 12.4152 11.4174C12.3214 11.2299 11.5781 9.40179 11.2701 8.65848C10.9688 7.93527 10.6607 8.03571 10.433 8.02232C10.2188 8.00893 9.97098 8.00893 9.72321 8.00893C9.47545 8.00893 9.07366 8.10268 8.73214 8.47098C8.39062 8.84598 7.43304 9.7433 7.43304 11.5714C7.43304 13.3996 8.76562 15.1674 8.94643 15.4152C9.13393 15.6629 11.5647 19.4129 15.2946 21.0268C17.6518 22.0446 18.5759 22.1317 19.7545 21.9576C20.471 21.8504 21.9509 21.0603 22.2589 20.1897C22.567 19.3192 22.567 18.5759 22.4732 18.4219C22.3862 18.2545 22.1384 18.1607 21.7701 17.9799Z"></path>
  </symbol>
  <symbol xmlns="http://www.w3.org/2000/svg" xml:space="preserve" viewBox="0 0 305.002 305.002" id="check-mark">
    <path d="M152.502.001C68.412.001 0 68.412 0 152.501s68.412 152.5 152.502 152.5c84.089 0 152.5-68.411 152.5-152.5S236.591.001 152.502.001zm0 280C82.197 280.001 25 222.806 25 152.501c0-70.304 57.197-127.5 127.502-127.5 70.304 0 127.5 57.196 127.5 127.5 0 70.305-57.196 127.5-127.5 127.5z"></path>
    <path d="m218.473 93.97-90.546 90.547-41.398-41.398c-4.882-4.881-12.796-4.881-17.678 0-4.881 4.882-4.881 12.796 0 17.678l50.237 50.237a12.465 12.465 0 0 0 8.839 3.661c3.199 0 6.398-1.221 8.839-3.661l99.385-99.385c4.881-4.882 4.881-12.796 0-17.678-4.882-4.882-12.797-4.882-17.678-.001z"></path>
  </symbol>

  <symbol fill="none" xmlns="http://www.w3.org/2000/svg" viewBox="0 0 70 70" id="diploma-certificate">
    <g clip-path="url(#a)" fill="#F4F2ED">
      <path d="M61.833 15.264H43.167a1.166 1.166 0 1 0 0 2.334h18.666a1.166 1.166 0 1 0 0-2.334ZM61.834 8.264H31.5a1.167 1.167 0 0 0 0 2.334h30.334a1.166 1.166 0 1 0 0-2.334ZM63 23.43c0-.643-.521-1.166-1.166-1.166H31.5a1.167 1.167 0 0 0 0 2.334h30.334c.645 0 1.166-.523 1.166-1.167Z"></path>
      <path d="M66.5.097h-63c-1.93 0-3.5 1.57-3.5 3.5v49c0 1.93 1.57 3.5 3.5 3.5h42a1.166 1.166 0 1 0 0-2.333h-42a1.169 1.169 0 0 1-1.167-1.167v-49c0-.642.524-1.166 1.167-1.166h63c.644 0 1.167.524 1.167 1.166v28a1.166 1.166 0 1 0 2.333 0v-28c0-1.93-1.57-3.5-3.5-3.5Z"></path>
      <path d="M57.132 28.93c-7.057 0-12.798 5.736-12.798 12.786A12.78 12.78 0 0 0 49 51.592v17.144a1.167 1.167 0 0 0 1.813.97l6.354-4.234 6.352 4.235a1.168 1.168 0 0 0 1.814-.97V51.528c2.808-2.35 4.597-5.876 4.597-9.813 0-7.05-5.741-12.787-12.798-12.787ZM63 66.556 57.814 63.1a1.166 1.166 0 0 0-1.294 0l-5.187 3.456V53.111A12.68 12.68 0 0 0 56 54.457v3.974a1.166 1.166 0 1 0 2.334 0v-3.977c1.669-.157 3.244-.64 4.666-1.377v13.48Zm-5.868-14.375c-5.77 0-10.465-4.695-10.465-10.465 0-5.763 4.693-10.453 10.465-10.453 5.771 0 10.466 4.69 10.466 10.453-.001 5.77-4.696 10.465-10.466 10.465Z"></path>
      <path d="M57.128 35.147a1.166 1.166 0 1 0 0 2.333 4.248 4.248 0 0 1 4.243 4.242 4.248 4.248 0 0 1-4.243 4.242 1.166 1.166 0 1 0 0 2.333 6.583 6.583 0 0 0 6.577-6.575 6.584 6.584 0 0 0-6.577-6.575ZM19.788 41.189a1.17 1.17 0 0 0-.943-.795l-3.897-.565-1.746-3.533a1.166 1.166 0 0 0-1.045-.65h-.002c-.444 0-.85.253-1.045.652l-1.735 3.531-3.896.565a1.169 1.169 0 0 0-.648 1.99l2.816 2.747-.665 3.874a1.167 1.167 0 0 0 1.692 1.231l3.483-1.828 3.495 1.828a1.165 1.165 0 0 0 1.69-1.232l-.666-3.876 2.815-2.745c.319-.309.434-.772.297-1.194Zm-5.18 2.698c-.273.267-.4.655-.334 1.033l.37 2.154-1.947-1.018a1.164 1.164 0 0 0-1.083 0L9.682 47.07l.369-2.151c.065-.38-.06-.766-.335-1.033l-1.562-1.524 2.163-.313c.38-.055.71-.296.88-.64l.962-1.96.97 1.961c.17.345.498.584.878.639l2.163.313-1.561 1.524ZM38.455 41.189a1.17 1.17 0 0 0-.943-.795l-3.897-.565-1.746-3.533a1.163 1.163 0 0 0-2.092.002l-1.735 3.531-3.895.565a1.169 1.169 0 0 0-.648 1.99l2.816 2.747-.665 3.874a1.167 1.167 0 0 0 1.692 1.231l3.483-1.828 3.495 1.828a1.164 1.164 0 0 0 1.69-1.232l-.666-3.876 2.815-2.745c.318-.309.432-.772.296-1.194Zm-5.18 2.698c-.273.267-.4.655-.334 1.033l.37 2.154-1.947-1.018a1.164 1.164 0 0 0-1.083 0l-1.932 1.015.369-2.151c.065-.38-.061-.766-.335-1.033l-1.562-1.524 2.163-.313c.38-.055.709-.296.88-.64l.962-1.96.97 1.961c.17.345.497.584.878.639l2.163.313-1.561 1.524ZM8.167 10.598h18.666a1.167 1.167 0 0 0 0-2.334H8.167a1.167 1.167 0 0 0 0 2.334ZM8.167 17.598H38.5a1.166 1.166 0 1 0 0-2.334H8.167a1.167 1.167 0 0 0 0 2.334ZM8.167 24.598h18.666a1.167 1.167 0 0 0 0-2.334H8.167a1.167 1.167 0 0 0 0 2.334ZM39.667 30.43c0-.643-.522-1.166-1.167-1.166H8.167a1.167 1.167 0 0 0 0 2.334H38.5c.645 0 1.167-.523 1.167-1.167Z"></path>
    </g>
    <defs>
      <clipPath id="a">
        <path fill="#fff" d="M0 0h70v70H0z"></path>
      </clipPath>
    </defs>
  </symbol>

  <symbol fill="none" xmlns="http://www.w3.org/2000/svg" viewBox="0 0 70 68" id="welder">
    <path d="M24.962 63.794h-3.717V50.07c0-2.667 1.422-5.087 3.803-6.473.583-.34.768-1.068.414-1.627-.354-.56-1.113-.738-1.696-.398-3.125 1.82-4.991 4.997-4.991 8.498v14.907c0 .654.553 1.184 1.235 1.184h4.952c.683 0 1.235-.53 1.235-1.184 0-.654-.553-1.184-1.235-1.184ZM52.15 41.573c-.582-.34-1.342-.162-1.696.398a1.157 1.157 0 0 0 .415 1.627c2.382 1.387 3.804 3.806 3.804 6.473v13.722H39.194V50.13l5.2 5.227a1.281 1.281 0 0 0 1.281.307c.454-.143.78-.524.839-.978l1.002-7.756c.084-.65-.396-1.24-1.073-1.321-.677-.08-1.294.38-1.378 1.03l-.682 5.275-5.53-5.557a1.261 1.261 0 0 0-.893-.367c-.337 0-.66.132-.893.366l-5.531 5.559-.683-5.277c-.083-.649-.7-1.11-1.377-1.03-.677.081-1.158.673-1.074 1.322l1.003 7.756c.059.454.385.835.838.978.453.144.952.025 1.281-.306l5.2-5.226v13.662H29.08c-.682 0-1.235.53-1.235 1.184 0 .654.553 1.184 1.235 1.184h26.83c.681 0 1.234-.53 1.234-1.184V50.071c0-3.5-1.866-6.678-4.992-8.498Z" fill="#F4F2ED"></path>
    <path d="M57.033 20.543h-1.18l-.44-4.372c-.42-4.169-2.433-8.016-5.668-10.834C46.513 2.522 42.327.971 37.958.971c-4.368 0-8.554 1.55-11.788 4.367C22.937 8.154 20.924 12 20.503 16.17l-.44 4.372h-1.18c-.681 0-1.234.53-1.234 1.184v6.278c0 .654.553 1.184 1.235 1.184h.797c.027 3.533 1.524 6.89 4.214 9.36.053.049.106.098.16.145 1.695 3.62 5.488 6.15 9.887 6.15h8.033c4.4 0 8.193-2.53 9.888-6.15l.157-.143c2.693-2.475 4.19-5.832 4.216-9.362h.798c.682 0 1.235-.53 1.235-1.184v-6.278c0-.654-.553-1.184-1.236-1.184ZM37.959 3.34c3.231 0 6.345.99 8.922 2.808a15.468 15.468 0 0 1-8.922 2.808c-3.229 0-6.346-.99-8.922-2.807a15.46 15.46 0 0 1 8.922-2.81Zm-17.84 19.572h2.989v3.908h-2.988v-3.908Zm2.989 10.52a10.323 10.323 0 0 1-.954-4.243h.954v4.244Zm27.234 1.02c0 4.424-3.753 8.024-8.366 8.024h-8.033c-4.613 0-8.365-3.6-8.365-8.023V19.11c0-2.242 1.902-4.067 4.24-4.067H46.1c2.338 0 4.24 1.825 4.24 4.067v15.343ZM46.1 12.675H29.816c-3.7 0-6.71 2.887-6.71 6.436v1.433h-.562l.417-4.144c.33-3.274 1.806-6.315 4.178-8.661 3.079 2.318 6.876 3.587 10.818 3.587 3.942 0 7.739-1.269 10.818-3.587 2.372 2.347 3.848 5.388 4.178 8.661l.417 4.144h-.56V19.11c0-3.549-3.01-6.436-6.71-6.436Zm6.71 20.756v-4.24h.953a10.318 10.318 0 0 1-.953 4.24Zm2.987-6.61h-2.987v-3.908h2.987v3.908ZM16.4 61.353h-3.233c-.987 0-1.79-.77-1.79-1.717v-3.969h1.77c.682 0 1.235-.53 1.235-1.184V37.585c0-.654-.553-1.185-1.235-1.185h-1.646V26.056c0-.314-.13-.616-.362-.837L7.784 22a1.272 1.272 0 0 0-1.747 0 1.15 1.15 0 0 0 0 1.675l2.994 2.87V36.4H7.384c-.683 0-1.235.53-1.235 1.184v16.899c0 .654.553 1.184 1.235 1.184h1.523v3.97c0 2.252 1.91 4.085 4.26 4.085h3.232c.682 0 1.235-.53 1.235-1.185 0-.654-.553-1.184-1.235-1.184Zm-7.781-8.055V38.77h3.293V53.3H8.62ZM3.303 22a1.272 1.272 0 0 0-1.747 0L.362 23.147a1.15 1.15 0 0 0 0 1.675c.24.232.557.347.873.347.316 0 .632-.115.873-.347l1.195-1.145a1.15 1.15 0 0 0 0-1.675ZM8.978 16.558a1.272 1.272 0 0 0-1.746 0l-1.195 1.146a1.15 1.15 0 0 0 0 1.675c.241.231.557.347.873.347.316 0 .632-.116.873-.347l1.195-1.146a1.15 1.15 0 0 0 0-1.675ZM3.303 17.704l-1.195-1.146a1.273 1.273 0 0 0-1.746 0 1.15 1.15 0 0 0 0 1.675l1.194 1.146c.241.231.558.347.874.347.316 0 .632-.116.873-.347a1.15 1.15 0 0 0 0-1.675ZM65.39 33.99v-3.354c0-.654-.554-1.185-1.236-1.185h-4.446c-.682 0-1.235.53-1.235 1.185v3.354c-2.723 1.244-4.61 3.91-4.61 6.99 0 .654.552 1.184 1.234 1.184.682 0 1.235-.53 1.235-1.184 0-2.96 2.512-5.37 5.599-5.37s5.599 2.41 5.599 5.37v3.922c0 .654.553 1.184 1.235 1.184S70 45.556 70 44.902V40.98c0-3.08-1.887-5.746-4.61-6.99Zm-2.47-.688a8.43 8.43 0 0 0-.989-.06 8.41 8.41 0 0 0-.988.06V31.82h1.976v1.482ZM68.765 47.666c-.682 0-1.235.53-1.235 1.184v14.944h-7.986c-.682 0-1.235.53-1.235 1.184 0 .654.553 1.184 1.235 1.184h9.221c.682 0 1.235-.53 1.235-1.184V48.85c0-.654-.553-1.184-1.235-1.184Z" fill="#F4F2ED"></path>
    <path d="M46.277 20.554H44.01c-.682 0-1.235.53-1.235 1.185 0 .654.553 1.184 1.235 1.184h1.032v2.684H30.875v-2.684h9.511c.683 0 1.235-.53 1.235-1.184 0-.654-.553-1.185-1.235-1.185H29.64c-.682 0-1.235.53-1.235 1.185v5.053c0 .654.553 1.184 1.235 1.184h16.637c.682 0 1.235-.53 1.235-1.184v-5.053c0-.654-.553-1.185-1.235-1.185Z" fill="#F4F2ED"></path>
  </symbol>

  <symbol fill="none" xmlns="http://www.w3.org/2000/svg" viewBox="0 0 75 74" id="quality-certificate">
    <path d="M47.343 23.53a1.156 1.156 0 0 0-.426-.57c-.2-.141-.44-.218-.687-.22h-5.824l-1.793-5.4a1.145 1.145 0 0 0-.426-.569 1.192 1.192 0 0 0-1.374 0c-.2.142-.35.341-.427.57l-1.793 5.399H28.77a1.202 1.202 0 0 0-.686.22c-.2.142-.349.34-.427.57-.078.23-.078.479 0 .71.078.23.23.43.434.57l4.699 3.34-1.793 5.4c-.078.23-.078.477-.003.707.076.23.225.431.425.574a1.218 1.218 0 0 0 1.383 0l4.699-3.34 4.699 3.34c.204.136.444.212.691.217.248-.002.49-.078.692-.217.2-.143.348-.344.424-.574.076-.23.075-.478-.002-.707l-1.793-5.4 4.699-3.34c.203-.14.355-.34.433-.57.078-.231.078-.48 0-.71Zm-7.195 3.26a1.153 1.153 0 0 0-.43.571c-.077.23-.079.479-.003.71l.949 2.836-2.473-1.761a1.205 1.205 0 0 0-1.383 0l-2.472 1.761.949-2.837c.075-.23.074-.479-.004-.709a1.153 1.153 0 0 0-.43-.572l-2.472-1.761h3.058a1.18 1.18 0 0 0 .69-.217c.2-.142.348-.342.423-.573l.95-2.836.949 2.836c.075.23.224.431.424.573.2.142.442.218.69.217h3.058l-2.473 1.761Z" fill="#F4F2ED"></path>
    <path d="M37.5 11.736c-4-.001-7.847 1.506-10.736 4.208-2.89 2.701-4.598 6.387-4.768 10.289-.171 3.901 1.209 7.717 3.85 10.649 2.643 2.932 6.344 4.754 10.33 5.087.445.034.879.057 1.324.057.399 0 .809-.023 1.207-.057h.117v-.012c3.985-.332 7.684-2.154 10.326-5.085 2.64-2.931 4.02-6.745 3.85-10.645-.172-3.9-1.88-7.585-4.767-10.285-2.889-2.7-6.734-4.207-10.733-4.206ZM48.996 33.15a.012.012 0 0 0-.008.004 12.933 12.933 0 0 1-4.355 4.533 13.33 13.33 0 0 1-6.02 1.995l-.011.011h-.012c-.733.07-1.471.067-2.203-.011a13.329 13.329 0 0 1-7.635-3.205 12.787 12.787 0 0 1-4.148-7.03 12.574 12.574 0 0 1 .992-8.054 12.993 12.993 0 0 1 5.737-5.87 13.448 13.448 0 0 1 8.196-1.347 13.28 13.28 0 0 1 7.389 3.713 12.734 12.734 0 0 1 3.64 7.293 12.593 12.593 0 0 1-1.562 7.968Z" fill="#F4F2ED"></path>
    <path d="m69 60.316-4.406-6.669c-3.153-4.747-6.301-9.501-9.446-14.264.246-.091.528-.194.809-.286a4.963 4.963 0 0 0 1.776-.723 4.838 4.838 0 0 0 1.353-1.336 4.673 4.673 0 0 0-.293-3.649 4.55 4.55 0 0 1-.434-1.864c.29-.55.694-1.037 1.184-1.43.522-.386.96-.868 1.29-1.42.33-.551.544-1.161.632-1.794a4.718 4.718 0 0 0-.63-1.79 4.834 4.834 0 0 0-1.292-1.413 4.7 4.7 0 0 1-1.184-1.441c.01-.644.158-1.28.434-1.865a4.649 4.649 0 0 0 .293-3.637 4.863 4.863 0 0 0-1.354-1.334 4.99 4.99 0 0 0-1.775-.725 4.996 4.996 0 0 1-1.746-.812 4.892 4.892 0 0 1-.422-1.842 4.691 4.691 0 0 0-.324-1.847 4.78 4.78 0 0 0-1.024-1.585 5.027 5.027 0 0 0-3.715-.514 4.897 4.897 0 0 1-1.933 0 4.654 4.654 0 0 1-1.184-1.453 4.822 4.822 0 0 0-1.126-1.548 4.957 4.957 0 0 0-1.651-1.003 4.955 4.955 0 0 0-1.882.205 4.878 4.878 0 0 0-1.657.893 4.907 4.907 0 0 1-1.793.835 4.907 4.907 0 0 1-1.793-.835 4.866 4.866 0 0 0-1.652-.892 4.942 4.942 0 0 0-1.875-.206 4.943 4.943 0 0 0-1.659 1 4.808 4.808 0 0 0-1.13 1.55 4.825 4.825 0 0 1-1.172 1.454 4.963 4.963 0 0 1-1.946 0 4.995 4.995 0 0 0-3.703.514 4.75 4.75 0 0 0-1.035 1.588 4.66 4.66 0 0 0-.324 1.855 4.44 4.44 0 0 1-.434 1.83c-.51.382-1.097.654-1.722.801a4.959 4.959 0 0 0-3.141 2.06 4.673 4.673 0 0 0 .293 3.648c.276.586.423 1.22.434 1.865a4.702 4.702 0 0 1-1.184 1.441 4.834 4.834 0 0 0-1.292 1.412 4.718 4.718 0 0 0-.63 1.79c.088.634.302 1.244.632 1.795.33.552.768 1.034 1.29 1.42.49.393.893.88 1.184 1.43a4.55 4.55 0 0 1-.434 1.864 4.668 4.668 0 0 0-.293 3.638c.354.53.814.985 1.351 1.338a4.92 4.92 0 0 0 1.778.72c.27.104.55.195.809.298-3.153 4.759-6.301 9.514-9.446 14.264L6 60.317a1.103 1.103 0 0 0 .012 1.257c.127.185.307.329.518.414.21.086.441.109.665.067l8.004-1.453 1.946 7.733c.056.216.176.41.345.561.168.15.378.25.604.285.061.013.124.021.187.023.197.001.39-.046.562-.138.173-.093.318-.226.423-.388l12.632-19.091c.094.022.176.08.27.103.192.044.389.067.586.068a5.95 5.95 0 0 0 2.953-1.166 4.909 4.909 0 0 1 1.793-.836c.65.155 1.26.44 1.793.836.487.404 1.052.71 1.662.898.61.189 1.252.256 1.889.2.093-.023.175-.08.258-.103l12.632 19.09c.105.163.25.296.423.389.172.092.365.14.562.138.063-.002.126-.01.187-.023.226-.035.436-.134.604-.285.169-.15.289-.345.345-.561l1.946-7.733 8.004 1.453c.223.04.454.017.665-.068.21-.086.39-.229.518-.413A1.104 1.104 0 0 0 69 60.316Zm-50.227 4.885-1.558-6.189a1.145 1.145 0 0 0-.5-.69c-.25-.16-.553-.22-.848-.168l-6.422 1.167 2.93-4.427c2.93-4.438 5.867-8.876 8.813-13.314.012.052.02.106.023.16-.018.63.092 1.258.324 1.847.23.588.579 1.127 1.024 1.584a5.033 5.033 0 0 0 3.714.515 4.897 4.897 0 0 1 1.934 0 4.52 4.52 0 0 1 1.184 1.453c.222.331.445.663.68.983L18.772 65.202Zm23.883-17.97a.821.821 0 0 1-.351.228c-.328.069-1.196-.446-1.758-.8a6.025 6.025 0 0 0-3.047-1.19 6.025 6.025 0 0 0-3.047 1.19c-.562.354-1.43.88-1.746.812a.972.972 0 0 1-.375-.252 7.43 7.43 0 0 1-.95-1.293 5.801 5.801 0 0 0-2.144-2.299 3.883 3.883 0 0 0-1.699-.332c-.51.01-1.018.048-1.523.115-.727.08-1.711.194-1.993-.023-.28-.218-.398-1.19-.48-1.899a5.65 5.65 0 0 0-.926-3.02 1.971 1.971 0 0 0-.316-.309 1.466 1.466 0 0 0-.14-.103l-.013-.011h-.011a7.46 7.46 0 0 0-2.32-1.11c-.692-.24-1.63-.56-1.794-.903-.164-.32.165-1.224.399-1.888.47-.972.644-2.056.504-3.122a5.547 5.547 0 0 0-1.817-2.551c-.515-.503-1.23-1.201-1.23-1.59 0-.39.715-1.087 1.23-1.59a5.547 5.547 0 0 0 1.817-2.551 5.523 5.523 0 0 0-.504-3.123c-.235-.663-.563-1.567-.399-1.899.165-.331 1.114-.652 1.805-.892a5.736 5.736 0 0 0 2.777-1.533 5.52 5.52 0 0 0 .938-3.008c.082-.71.187-1.67.48-1.899.293-.229 1.266-.114 1.993-.034a6.004 6.004 0 0 0 3.222-.217 5.721 5.721 0 0 0 2.145-2.3c.387-.617.926-1.452 1.312-1.532.328-.08 1.196.457 1.758.8a6.025 6.025 0 0 0 3.047 1.19 6.025 6.025 0 0 0 3.047-1.19c.562-.343 1.418-.869 1.758-.8.386.08.925.915 1.312 1.532a5.721 5.721 0 0 0 2.145 2.3 6.004 6.004 0 0 0 3.222.217c.727-.08 1.711-.195 1.992.023.282.217.399 1.19.481 1.899a5.649 5.649 0 0 0 .926 3.02 5.924 5.924 0 0 0 2.8 1.544c.692.228 1.63.549 1.794.892.164.32-.164 1.224-.399 1.887a5.522 5.522 0 0 0-.504 3.123 5.546 5.546 0 0 0 1.817 2.55c.515.504 1.23 1.202 1.23 1.59 0 .39-.715 1.088-1.23 1.59a5.546 5.546 0 0 0-1.817 2.552 5.522 5.522 0 0 0 .504 3.122c.234.664.563 1.568.398 1.9-.163.33-1.113.663-1.792.891a7.19 7.19 0 0 0-2.426 1.167c-.13.114-.252.236-.364.366a5.521 5.521 0 0 0-.937 3.009c-.082.709-.188 1.67-.48 1.898-.293.23-1.266.115-1.993.035a5.894 5.894 0 0 0-3.222.217 5.801 5.801 0 0 0-2.145 2.3c-.27.467-.593.904-.96 1.303Zm16.477 10.923a1.195 1.195 0 0 0-.849.168c-.25.16-.429.406-.499.69l-1.558 6.189L44.93 48.123c.234-.32.457-.652.68-.984a4.673 4.673 0 0 1 1.171-1.453 4.964 4.964 0 0 1 1.946 0 4.995 4.995 0 0 0 3.703-.515c.448-.455.8-.993 1.033-1.582.234-.59.344-1.218.326-1.85a.756.756 0 0 1 .023-.16c2.942 4.439 5.88 8.877 8.813 13.315l2.93 4.427-6.422-1.167Z" fill="#F4F2ED"></path>
  </symbol>

  <symbol fill="none" xmlns="http://www.w3.org/2000/svg" viewBox="0 0 100 92" id="pipelines">
    <path fill-rule="evenodd" clip-rule="evenodd" d="M70 17.5c.5 0 .838.514 1 1 .5 1.5.52 3.945.063 6.021-.62.639-1.24.639-1.86 0C69.048 22.529 68.5 20 69 18c0 0 .151-.5 1-.5ZM76.914 19.258c.484 0 .764.253.837.479.249.763-.898 4.287-2.273 6.1-.918.24-1.396-.12-1.435-1.076a24.742 24.742 0 0 1 1.794-4.785c.163-.476.565-.718 1.077-.718ZM8.254 27.632a5.055 5.055 0 0 1 2.153.239c.543 1.163.184 1.8-1.077 1.914-.16 7.496-.16 14.992 0 22.488 1.282.442 1.561 1.2.838 2.273-1.95.16-3.267-.677-3.948-2.512-.16-7.337-.16-14.673 0-22.01.302-1.137.98-1.935 2.034-2.392ZM82.416 27.632c.332.047 1.84 0 1.555 1.674C83.5 30.5 82.168 31.34 81 32c-1.002.607-1.5.425-1.933-.66.91-1.43 2.433-3.84 3.35-3.708ZM11.603 31.46h39.952c-.08 6.26 0 12.48.24 18.66-6.618.319-13.317.478-20.097.478l-20.095-.12a189.346 189.346 0 0 1 0-19.019Zm1.914 13.636H49.88v.718H13.517v-.718Zm-.24 2.392c12.202-.04 24.402 0 36.603.12.2.242.28.52.24.837H13.276v-.957ZM54.186 31.22c11.489-.735 20.38 3.651 26.675 13.158 3.152 5.74 4.149 11.84 2.99 18.302-6.588-.078-13.207-.118-19.856-.12 1.205-7.895-2.144-11.962-10.048-12.201-.077-6.397.002-12.777.24-19.139Zm1.436 10.766c11.118 1.707 16.62 8.166 16.507 19.378h-.718c.196-10.81-5.067-17.03-15.79-18.66v-.718Zm0 2.392c6.627.696 11.133 4.125 13.516 10.287.324 2.22.444 4.452.36 6.699h-.718c.524-9.408-3.862-14.751-13.158-16.029v-.957Zm0 2.632c8.326 1.151 12.153 5.936 11.483 14.354h-.957c.852-7.914-2.657-12.34-10.526-13.278-.294-.356-.294-.715 0-1.076Z" fill="#F7F6F3"></path>
    <path fill-rule="evenodd" clip-rule="evenodd" d="M11.603 31.46c13.357-.24 26.754-.32 40.191-.24v18.9c-.238-6.18-.318-12.4-.239-18.66H11.603Z" fill="#F7F6F3"></path>
    <path fill-rule="evenodd" clip-rule="evenodd" d="M13.517 45.096v.717h36.364c-12.16.24-24.362.32-36.603.24-.064-.383.015-.702.239-.957ZM19.498 52.99c1.756-.04 3.51 0 5.263.12l6.46 4.904a158.893 158.893 0 0 1 6.698-4.904c1.832-.12 3.666-.16 5.502-.12v18.422c16.667-.04 33.334 0 50 .12 1.014.519 1.214 1.276.598 2.272-.18.15-.379.27-.598.359-28.469.16-56.938.16-85.406 0-1.276-.878-1.276-1.755 0-2.632 3.747-.12 7.495-.16 11.244-.12-.078-6.158.002-12.298.239-18.42Zm2.392 1.436c.34.05.66.17.957.359l6.46 5.024-7.297 5.86c-.12-3.746-.16-7.494-.12-11.243Zm18.421 0h.718c.08 3.751 0 7.5-.24 11.244a125.541 125.541 0 0 1-7.176-5.742c2.237-1.84 4.47-3.674 6.698-5.502Zm-9.33 7.416c.433-.002.831.118 1.196.359A137.405 137.405 0 0 0 40.79 68.9a7.1 7.1 0 0 1 .239 2.511H21.89c-.04-.8 0-1.598.12-2.392a411.238 411.238 0 0 0 8.971-7.177Z" fill="#F7F6F3"></path>
    <path fill-rule="evenodd" clip-rule="evenodd" d="M59.45 56.818c.815-.06 1.613.02 2.392.24a16.873 16.873 0 0 1 0 5.621c-1.003.221-1.96.141-2.87-.239.162-1.874.322-3.748.478-5.622ZM86.483 56.818a5.87 5.87 0 0 1 2.273.24c.12 1.912.16 3.826.12 5.741a8.447 8.447 0 0 1-2.751-.239 28.988 28.988 0 0 1 0-5.263c.171-.13.29-.29.358-.479ZM86.483 64.952v4.067h-24.64v-4.067c8.254-.073 16.468-.073 24.64 0Z" fill="#F7F6F3"></path>
    <path fill-rule="evenodd" clip-rule="evenodd" d="M61.842 64.952v4.067h24.641v-4.067c.237 1.39.317 2.826.24 4.306h-25.12c-.078-1.48.002-2.916.239-4.306Z" fill="#F7F6F3"></path>
  </symbol>
  <symbol fill="none" xmlns="http://www.w3.org/2000/svg" viewBox="0 0 90 93" id="capacitive-equipment">
    <path fill-rule="evenodd" clip-rule="evenodd" d="M20.226 8.613h10.838c.033.905 0 1.809-.096 2.71-.724.056-1.465.088-2.226.096a345.889 345.889 0 0 1 8.903 6.484c.187.367.252.754.194 1.161H13.452c-.06-.469.005-.92.193-1.354a164.65 164.65 0 0 0 8.71-6.29 11.794 11.794 0 0 0-2.13-.098v-2.71ZM44.601 7.343c.45-.747.776-.103.934.322.416 1.174.416 2.67 0 3.537-.323.429-.45.628-.934 0-.501-.932-.706-2.79 0-3.859ZM41 10.5c.5-.5 1.24.161 1.993.896.996 1.305 1.06 1.934.192 1.89-.995-.447-2.351-1.415-2.185-2.786Z" fill="#F7F6F3"></path>
    <path d="M48.51 10.693c1 .023.413 1.244-.303 1.474-.717.23-.736.338-1.434.461-.698.124-.674-.582.112-1.374.627-.583.944-.576 1.626-.56Z" fill="#F7F6F3"></path>
    <path fill-rule="evenodd" clip-rule="evenodd" d="M46.016 14.4v3.484h2.71c1.028 0 1.416.515 1.161 1.548h-3.29v1.936c3.072.134 6.387 0 9.251.212.104.313.014 1.585.039 1.917-2.293-.064-4.137.353-6.387.353-1.398.02-1.752.88-.547 1.582 2.58.097 4.933.032 7.515 0a521.89 521.89 0 0 1 .096 19.549c-2.395.477-3.105 1.832-2.129 4.064.58.667 1.322.99 2.226.968.05.443-.015.863-.193 1.258l-12.775.193c-.16.162-.322.323-.483.484-.097 2.386-.13 4.773-.097 7.161h-7.549V25.627a38.033 38.033 0 0 0 5.42-.194c.95-.418 1.014-.966.193-1.645a55.954 55.954 0 0 0-6.58 0 1.363 1.363 0 0 0-.871.484c-.097 10.58-.13 21.16-.097 31.742h-20.13c-.031-11.678 0-23.355.098-35.032 8.018-.226 16.05-.258 24.096-.097-.087.484-.048.716.107 1.166 1.21-.586 4.33-.817 5.7-.682v-1.936c-.784 0 0 0-2.55-.082-.9-.45-.9-1.35.45-1.35.9 0 1.794-.061 2.7 0-.064-1.104.175-2.51.368-3.6.542-.247 1.058-.247 1.548 0Zm-30.774 8.129h.774a1320.202 1320.202 0 0 0 0 31.742h-.774V22.529Zm4.258 0a651.08 651.08 0 0 1-.387 31.742c-.128-10.647 0-21.228.387-31.742Zm31.548 4.645c.258 3.062.387 6.19.387 9.387l-.193 9.387c-.194-6.256-.258-12.515-.194-18.774Zm1.355.194c.137-.175.33-.24.58-.194.065 5.808 0 11.614-.193 17.42l-.387-17.226Zm1.742-.194c.266-.03.524.002.774.097a364.336 364.336 0 0 0-.193 16.742h-.58V27.174ZM17.758 54.271h-.58V22.529h.58V54.27Z" fill="#F7F6F3"></path>
    <path fill-rule="evenodd" clip-rule="evenodd" d="M22.355 57.774h6.58l-2.128 4.646a8.015 8.015 0 0 1-2.42-.194 72.546 72.546 0 0 1-2.032-4.452Z" fill="#F7F6F3"></path>
    <path fill-rule="evenodd" clip-rule="evenodd" d="M26.613 65.516a294.519 294.519 0 0 0-.194 15.097c2.938.064 5.841 0 8.71-.194V61.065a17.64 17.64 0 0 1 3.678.193 30.622 30.622 0 0 1-1.84 2.71c-.096 5.483-.128 10.967-.096 16.451h7.936c-.033-1.034 0-2.066.096-3.096a2.362 2.362 0 0 1 1.258-.194v3.484c.686.06 1.331-.004 1.936-.194v-3.29h2.71v3.29h1.935v-3.096h1.161a12.51 12.51 0 0 0 .194 3.096c.67.19 1.38.255 2.129.194v-3.29c.399-.254.818-.254 1.258 0 .097 1.03.129 2.062.097 3.096.605.19 1.25.255 1.935.194v-3.484a12.151 12.151 0 0 1 3 .194c.097 1.03.13 2.062.097 3.096h1.742c-.032-1.034 0-2.066.097-3.096a2.362 2.362 0 0 1 1.258-.194v3.29h2.129c.191-.995.255-2.027.193-3.096h1.162v3.096h1.935v-3.29h2.516v3.29h1.936a12.51 12.51 0 0 0 .193-3.096h1.162c.19.994.255 2.027.193 3.096.715-.102 1.328.091 1.839.581.225.81-.065 1.358-.871 1.645-22.903.13-45.807.13-68.71 0-.966-.406-1.224-1.02-.774-1.839a65.545 65.545 0 0 1 6.774-.193V57.968a4.434 4.434 0 0 1 1.742 0v22.451h7.548c.033-4.968 0-9.935-.096-14.903a2.033 2.033 0 0 1-.678-.968 11.06 11.06 0 0 1 2.904-.193c.033.41-.031.797-.194 1.161Z" fill="#F7F6F3"></path>
    <path fill-rule="evenodd" clip-rule="evenodd" d="M75.968 61.258v6H45v-6h30.968ZM75.968 53.1v6H45v-6h30.968ZM44.807 69.193h31.16a39.467 39.467 0 0 1 0 6.097c-10.382-.089-20.77-.121-31.16-.097v-6Z" fill="#F7F6F3"></path>
    <path fill-rule="evenodd" clip-rule="evenodd" d="M69.194 77.323h-1.162a12.51 12.51 0 0 1-.193 3.097v-3.29c.495-.06.947.005 1.355.193Z" fill="#C7CCCF"></path>
  </symbol>
  <symbol fill="none" xmlns="http://www.w3.org/2000/svg" viewBox="0 0 100 104" id="metal-structures">
    <path opacity=".01" fill-rule="evenodd" clip-rule="evenodd" d="M24.64 14.062a.584.584 0 0 1 .12-.48c.166.225.126.385-.12.48ZM24.64 14.063c-.161.16-.161.16 0 0Z" fill="#F7F6F3"></path>
    <path fill-rule="evenodd" clip-rule="evenodd" d="M34.976 49.4v45.672c3.808.08 7.574 0 11.298-.24V84.495c.2-7.25.32-14.542.36-21.875.49.631 1.09.792 1.804.481.237 10.567.318 21.144.24 31.73 10.217.32 20.473.32 30.77 0-.03-.145-.11-.225-.241-.24A25622.365 25622.365 0 0 0 31.85 42.308l-21.875-.24C8.841 41.482 8.5 40 8.894 39.303c2.106-.303 6.048-.2 7.813-.24v-6.731a54.253 54.253 0 0 0-7.212-.24v-1.923h7.212v-3.847c-2.485.04-4.97 0-7.452-.12a2.554 2.554 0 0 1 0-2.163 588.9 588.9 0 0 1 23.798 0A8718.983 8718.983 0 0 1 84.856 81.37c.392 3.263.472 6.548.24 9.856-.381.593-.822.633-1.322.12A9218.888 9218.888 0 0 1 30.41 32.452a7.64 7.64 0 0 0-3.245.12 32.81 32.81 0 0 1-.12 6.49c1.604.04 3.207 0 4.807-.12.142-.362.302-.723.48-1.081 16.935 18.978 34.242 37.968 51.443 56.73 2.32.2 4.644.32 6.971.361.948 1.166.708 2.048-.72 2.644-27.645.16-55.29.16-82.933 0-1.373-.692-1.534-1.574-.481-2.644 2.082-.12 4.165-.16 6.25-.12-.04-16.747 0-33.494.12-50.24 0 0 2.302-.098 2.284-.12a927.066 927.066 0 0 1 8.774 11.177 225.909 225.909 0 0 1 7.932-9.615 19.793 19.793 0 0 1 3.005 3.365ZM18.87 26.321h6.01v3.847h-6.01v-3.847Zm8.173 0c1.625-.09 3.227.03 4.808.36a20.52 20.52 0 0 1 2.764 2.525 7935.639 7935.639 0 0 1 49.28 54.808c.524 1.559-.037 2.28-1.683 2.163a1.052 1.052 0 0 1-.962-.48C65.465 68.148 46.785 47.716 31 30.167c0 0-2-.168-3.957 0v-3.846Zm-8.173 6.01h6.01v6.73h-6.01v-6.73Zm-3.605 16.587c.364.002.645.162.84.48l6.371 8.294a119.04 119.04 0 0 1-6.971 8.533 311.74 311.74 0 0 1-.24-17.307Zm16.827.72c.309.33.469.771.48 1.323.319 5.134.279 10.222-.12 15.264a550.334 550.334 0 0 1-6.85-8.533 536.945 536.945 0 0 0 6.49-8.053Zm-8.174 10.097a88.781 88.781 0 0 1 7.693 9.495 142.161 142.161 0 0 1-7.452 9.495 449.435 449.435 0 0 1-7.692-9.495c2.535-3.135 5.019-6.3 7.451-9.495Zm-8.413 12.74a97.62 97.62 0 0 1 6.971 8.293 322.51 322.51 0 0 1-6.49 8.294.744.744 0 0 1-.721.24c-.078-5.627.002-11.236.24-16.827Zm16.827.24.48 3.366a195.92 195.92 0 0 1-.36 13.221 173.996 173.996 0 0 1-6.85-8.534 338.025 338.025 0 0 1 6.73-8.053Zm.24 20.674v1.442H15.505V93.39a182.774 182.774 0 0 0 8.534-10.577 407.616 407.616 0 0 0 8.533 10.577Z" fill="#F7F6F3"></path>
    <path fill-rule="evenodd" clip-rule="evenodd" d="M9.495 30.169v1.923a54.254 54.254 0 0 1 7.212.24H9.255a5.013 5.013 0 0 1 .24-2.163ZM48.437 63.101c-.713.31-1.314.15-1.802-.48a991.5 991.5 0 0 1-.361 21.874V62.38c.806.06 1.527.3 2.163.721ZM32.331 72.716c.015-.13.095-.21.24-.24.24 1.191.32 2.393.241 3.606l-.48-3.365ZM15.505 93.39v1.442h17.067V93.39c.233.506.313 1.067.24 1.682H15.266c-.073-.615.007-1.176.24-1.682ZM34.976 49.399c.24 15.103.32 30.248.24 45.433h11.058c-3.724.239-7.49.32-11.298.24V49.399ZM79.207 94.591c.13.015.21.095.24.24-10.296.32-20.552.32-30.77 0 10.218.08 20.394 0 30.53-.24ZM32.348 15.015c.459.007.763.483.905.932.44 1.383.427 3.629-.02 5.53-.577.578-1.145.57-1.707-.024-.116-1.833-.588-4.161-.103-5.991 0 0 .146-.457.925-.447ZM39.735 15.914c.417.154.577.461.569.679-.03.736-2.139 3.407-3.9 4.531-.868-.086-1.165-.547-.894-1.384a22.734 22.734 0 0 1 3.069-3.55c.291-.359.715-.439 1.156-.276ZM40.53 22.07c.27.148 1.584.587.806 1.939-.786.878-2.2 1.177-3.417 1.374-1.057.203-1.427-.112-1.455-1.184 1.24-.941 3.319-2.533 4.066-2.128Z" fill="#F7F6F3"></path>
  </symbol>
  <symbol fill="none" xmlns="http://www.w3.org/2000/svg" viewBox="0 0 90 73" id="industry-equipment">
    <path d="M38.766 71.861a196.098 196.098 0 0 0-3.653-1.765l-2.292-1.098v-2.282l.011-2.293.266-.118c1.328-.624 2.9-1.335 2.956-1.335.022 0 .022.323-.011.732-.033.398-.078.915-.089 1.152l-.033.43 2.048 1.001c1.738.862 2.114 1.002 2.447.959.41-.054.741-.194 2.568-1.12.598-.312 1.34-.635 1.66-.743.31-.097.61-.204.654-.247.044-.043.033-.345-.023-.69a5.102 5.102 0 0 1-.033-1.15l.067-.54.465.378c.265.204.907.57 1.439.829l.963.452-.055 1.99-.045 2.003-.93.527c-.509.291-1.727.937-2.7 1.443a120.64 120.64 0 0 0-2.768 1.475c-.543.312-1.118.592-1.273.624-.2.043-.643-.118-1.639-.614ZM51.896 66.447c-.21-.237-.42-.625-.42-.775 0-.151 1.56-1.077 1.97-1.152.299-.065.365-.022.564.29.266.42.3.84.1 1.088-.078.086-.343.29-.587.452-.531.344-1.362.387-1.627.097Z" fill="#F7F6F3"></path>
    <path d="m38.81 65.09-1.084-.56.066-1.764c.033-.97.066-3.811.066-6.308v-4.543l.587-.075c.31-.043.797-.172 1.063-.29.266-.108.52-.184.553-.14.034.032.089 3.25.1 7.157.033 5.867.011 7.094-.11 7.094-.078-.01-.632-.258-1.24-.57ZM41.644 57.943c.034-3.96.089-7.265.133-7.373.044-.097.233-.237.41-.301.177-.076.531-.28.775-.453.254-.172.487-.29.52-.247.044.043.078 3.37.078 7.395v7.309l-.587.194c-.332.107-.742.3-.908.43-.177.118-.354.226-.398.226-.034 0-.045-3.23-.023-7.18ZM55.914 64.305c-.653-.538-.276-1.249.897-1.7l.454-.173.42.42c.488.474.532.721.2 1.13-.52.646-1.406.797-1.97.323ZM59.523 62.346c-.52-.527-.376-.904.576-1.464.354-.215.73-.387.819-.387.233 0 .963.624.963.829 0 .333-.354.785-.808 1.054-.653.366-1.173.356-1.55-.032ZM45.076 60.085c-.166-1.453-.166-2.335-.01-2.637.254-.473 2.789-4.176 4.538-6.641.487-.678 1.184-1.669 1.56-2.207.665-.947 2.17-2.97 3.4-4.564.952-1.238 2.103-2.368 2.723-2.67.31-.15.686-.365.852-.484.388-.258 2.181-.947 2.236-.86.078.139-.597 1.345-1.173 2.109-.321.42-.919 1.27-1.35 1.894-.421.625-1.008 1.41-1.296 1.755-.299.344-.72.915-.952 1.28-.232.356-.82 1.196-1.317 1.863a75.22 75.22 0 0 0-1.262 1.733l-1.008 1.389c-1.771 2.378-3.664 4.983-4.505 6.189-1.085 1.572-2.16 3.003-2.237 3.003-.044.01-.121-.517-.199-1.152ZM63.553 60.44c-.388-.43-.421-.656-.144-.98.232-.279 1.118-.86 1.527-1.011.82-.312 1.628.743 1.074 1.389-.299.344-1.483.98-1.815.98-.2 0-.41-.12-.642-.378ZM10.946 57.63l-3.498-1.786-.066-2.099c-.078-2.12-.045-2.4.31-2.4.077 0 .73-.291 1.45-.646.708-.355 1.317-.635 1.328-.614.034.032-.155 1.669-.243 2.1-.067.322-.045.365.299.483.21.076 1.118.485 2.026.916.907.42 1.782.774 1.937.774.387 0 2.778-1.076 3.332-1.506l.454-.345.465.172c.255.097 1.04.485 1.738.85l1.273.668v.592c0 .57-.011.592-.553.99-.665.495-2.148 1.357-3.654 2.132-.609.312-1.505.775-2.004 1.033-.498.258-.94.474-.996.474-.055 0-1.671-.808-3.598-1.787ZM29.61 56.189c-3.652-1.798-8.213-4.026-10.129-4.973-1.915-.937-3.509-1.733-3.553-1.787-.045-.043-.056-.646-.023-1.335.056-1.151.09-1.27.277-1.27.111 0 .941.366 1.838.818 5.89 2.971 9.72 4.866 13.65 6.782 2.468 1.205 4.55 2.25 4.605 2.325.067.086.078.656.044 1.42l-.066 1.282-6.642-3.262ZM68.014 58.19c-.487-.473-.52-.968-.066-1.377.343-.312 1.583-.947 1.86-.947.1 0 .343.161.553.366.476.463.52 1.011.1 1.42-.288.28-1.606.905-1.904.905-.09 0-.333-.162-.543-.366ZM72.42 55.64c-.764-.721-.575-1.152.797-1.83.92-.463.952-.474 1.251-.301.166.096.41.344.52.549.21.366.21.376 0 .785-.154.313-.387.506-.874.775-.852.453-1.24.453-1.694.022Z" fill="#F7F6F3"></path>
    <path d="M13.116 52.185a57.345 57.345 0 0 1-1.118-.56c-.045-.054.155-11.916.199-11.959.033-.032.476.14.985.377.498.237.985.43 1.063.43.11 0 .144.861.133 4.5-.011 2.465-.045 5.22-.089 6.114l-.066 1.636-1.107-.538ZM15.795 52.238c-.022-.054-.022-.323.01-.613l.045-.517.388.054c.21.032.453.118.542.194.144.107.133.161-.055.355-.288.301-.875.624-.93.527ZM80.147 49.59c-.885-.43-2.435-1.216-3.454-1.733l-1.86-.947v-1.97c0-1.442.034-1.991.144-2.067.067-.064.61-.312 1.185-.56.576-.247 1.24-.57 1.472-.72l.41-.259v.592c0 .334-.078.764-.166.98-.277.635-.244.656 2.214 1.862.852.42 1.683.764 1.849.764.155 0 1.395-.538 2.745-1.195 2.06-1 2.436-1.216 2.37-1.367-.134-.269-.178-1.668-.067-1.83.077-.107.354-.01 1.25.43.632.313 1.274.625 1.429.679l.277.108v4.262l-.775.312c-.421.173-1.45.657-2.27 1.077-3.32 1.722-4.65 2.368-4.893 2.368-.144 0-.974-.355-1.86-.786ZM35.7 50c-1.284-.27-2.292-.916-3.388-2.175a8.255 8.255 0 0 0-1.173-1.044c-1.008-.721-1.406-1.776-1.395-3.67.022-2.649 1.085-4.77 3.066-6.126.377-.258 1.772-1.033 3.111-1.733 4.107-2.142 5.28-2.766 6.144-3.283.454-.28 1.705-.98 2.768-1.56 1.063-.582 2.613-1.432 3.432-1.884a242.77 242.77 0 0 1 3.653-1.992c1.184-.645 2.812-1.539 3.598-1.99a93.03 93.03 0 0 1 2.435-1.346c.554-.291 1.694-.915 2.547-1.4.852-.484 2.723-1.496 4.15-2.26a212.816 212.816 0 0 0 3.986-2.153c.764-.43 2.535-1.4 3.93-2.153 6.997-3.789 7.993-4.284 9.1-4.478 1.196-.215 2.535.108 4.76 1.141 1.705.797 2.447 1.41 2.967 2.476.465.969.61 1.604.61 2.83 0 1.551-.233 2.552-.886 3.865-.477.937-.709 1.249-1.606 2.142-.575.582-1.073 1.023-1.107.99-.044-.032.078-.322.266-.634.365-.636 1.384-2.982 1.627-3.757.31-.947.388-2.26.21-3.283-.376-2.056-1.505-3.219-3.719-3.822-.454-.118-.963-.215-1.151-.215-.499 0-1.417.29-2.436.754-.487.226-1.361.624-1.937.882-.587.27-2.424 1.217-4.096 2.12l-3.764 2.035c-.399.205-1.295.7-1.993 1.098-.697.388-2.612 1.432-4.262 2.315a220.98 220.98 0 0 0-3.875 2.099c-.487.28-1.46.807-2.158 1.184-.698.366-1.672.904-2.159 1.184-.841.484-1.782 1-5.424 2.96a390.71 390.71 0 0 0-7.64 4.198 302.763 302.763 0 0 1-5.091 2.799c-4.418 2.346-5.359 3.207-6.266 5.758-.2.56-.255.948-.255 1.938-.011 1.216 0 1.248.398 2.067.554 1.097 1.318 1.894 2.237 2.325.94.44 1.572.58 2.734.57 1.151 0 1.849-.215 3.067-.926.763-.44.907-.495 1.383-.452.288.022.554.076.598.119.045.032-.01.236-.11.441-.122.258-.432.527-.93.85-1.805 1.12-4.118 1.593-5.956 1.195Z" fill="#F7F6F3"></path>
    <path d="m37.028 47.222-.321-.14.52-.355c.709-.463 1.185-.538 1.617-.237.642.441.376.7-.842.807-.42.044-.753.022-.974-.075ZM19.869 46.867a7.11 7.11 0 0 0-.797-.538l-.465-.27.221-.56c.122-.311.443-.893.709-1.29.265-.41.498-.787.52-.851.022-.054.41.064.864.269.454.204.963.42 1.14.484.166.076.299.162.299.216 0 .086-.354.624-1.428 2.152-.255.366-.532.668-.598.668-.078-.011-.277-.13-.465-.28ZM41.766 46.673c-.576-.183-1.107-.495-1.495-.894-.42-.43-.94-1.55-1.018-2.217-.1-.753.2-3.24.487-4.026.476-1.324 2.015-3.218 3-3.67 1.074-.506 2.657-.57 3.51-.14.852.43 1.693 1.55 2.003 2.68.222.775.166 2.347-.11 3.197-.731 2.314-1.838 3.66-3.842 4.66-1.229.604-1.65.679-2.535.41Zm2.336-1.647c2.125-1.044 3.398-3.8 2.845-6.2-.266-1.173-1.24-2.013-2.336-2.013-1.373 0-3.177 1.582-3.875 3.39-.31.808-.42 2.466-.221 3.262.41 1.701 1.948 2.368 3.587 1.561Z" fill="#F7F6F3"></path>
    <path d="M42.541 43.261c-.908-.258-1.24-1.83-.642-3.046.232-.485.963-1.227 1.34-1.356.752-.28 1.616.01 2.036.667.166.27.222.549.222 1.163 0 .936-.222 1.485-.786 2.012-.664.603-1.362.786-2.17.56Zm1.528-1.507c.531-.549.564-1.625.066-1.808-.432-.162-.786.021-1.04.527-.3.56-.322 1.044-.078 1.378.243.345.664.302 1.052-.097ZM34.692 45.543c-1.583-.936-1.417-3.552.31-5.145.698-.635 1.196-.807 1.871-.668 1.107.248 1.55.926 1.55 2.336 0 .818-.044 1.012-.343 1.593-.399.797-1.185 1.669-1.705 1.916-.51.237-1.262.216-1.683-.032Zm1.794-1.69c.31-.204.819-1.162.819-1.55 0-1.184-.83-1.54-1.705-.721-.82.764-.93 1.733-.266 2.282.366.301.653.301 1.152-.01ZM47.49 45.629c0-.054.199-.495.443-.99.575-1.185.298-1.013 5.856-3.865.443-.226.753-.301 1.184-.301.543 0 .598.021.598.247 0 .528-.376.872-1.727 1.572-.72.377-1.76.936-2.313 1.248-.543.313-1.218.657-1.495.776-.277.118-.963.484-1.528.807-.553.333-1.018.56-1.018.506ZM16.393 45.565l-.598-.043.077-.883c.034-.484.067-1.399.067-2.034v-1.152l.686.237.675.237.045 1.4c.01.774.055 1.603.088 1.861.045.42.034.452-.199.43-.133-.01-.51-.031-.841-.053ZM27.01 44.617c-.842-.43-2.37-1.141-9.632-4.521a182.699 182.699 0 0 0-2.989-1.367c-1.25-.56-1.96-1.453-2.391-3.025-.299-1.098-.144-3.143.31-4.209 1.14-2.626 4.362-4.682 6.343-4.047.244.075 1.307.592 2.37 1.152a190.865 190.865 0 0 0 11.778 5.608c.41.183.742.377.742.43 0 .055-.41.356-.908.668-.498.312-1.306.969-1.793 1.453-1.44 1.421-2.225 2.928-2.558 4.93-.199 1.206-.199 1.862-.01 2.745.143.657.143.667-.09.667-.12-.01-.652-.226-1.173-.484Zm-5.425-8.44c.609-.58.576-1.323-.055-1.581-.344-.14-.432-.14-.709 0-.708.355-.919 1.27-.387 1.668.41.312.774.28 1.15-.086Zm-7.307-1.032c.089-.183.166-.625.166-1.023 0-.495.056-.743.178-.872.1-.097.376-.506.608-.904l.41-.732-.343-.312c-.841-.721-1.838 0-1.926 1.378-.023.29-.133.656-.244.828-.122.173-.221.57-.255.98-.055.667-.055.689.255.861.498.258.952.183 1.151-.204ZM80.734 43.402l-1.14-.506v-3.294c0-1.808.033-4.747.077-6.534.067-3.025.078-3.25.266-3.25.11 0 .576-.195 1.03-.42.819-.41.84-.42.896-.194.033.129.044 3.487.033 7.47l-.033 7.233-1.129-.505ZM83.435 43.197c-.155-.259-.2-2.056-.2-6.814 0-6.792.09-9.042.333-9.042.1 0 .52-.172.93-.377.42-.204.775-.377.808-.377.022 0 .033 3.596.022 7.977l-.033 7.987-.554.172c-.31.097-.686.258-.83.366-.299.204-.41.226-.476.108ZM49.637 40.72c.044-.225.078-.731.089-1.13.022-.409.044-.732.066-.732.022 0 .177.097.343.216.166.107.587.312.93.43.343.13.653.28.698.334.088.15-.21.355-1.063.753-.399.173-.808.377-.92.431-.187.108-.198.075-.143-.301ZM76.217 38.988c-.907-.453-1.96-1.034-2.325-1.27-.365-.248-1.372-.786-2.225-1.206-1.439-.7-2.125-1.195-1.981-1.421.033-.054.42-.29.863-.538.432-.237.963-.56 1.174-.7.398-.29.907-.344 1.538-.172.344.097 2.768 2.013 4.185 3.315l.686.624-.055 1.11c-.033.602-.088 1.097-.133 1.097-.033 0-.808-.377-1.727-.84ZM53.855 39.31c-1.328-.623-1.86-1.463-2.048-3.228-.166-1.701 0-2.573.82-4.22.863-1.733 1.826-2.648 3.287-3.121.996-.334 2.48-.28 3.266.118 1.052.527 1.738 1.82 1.882 3.51.089 1.183-.144 2.195-.864 3.584-1.107 2.174-2.967 3.563-4.848 3.638-.731.032-.908-.011-1.495-.28Zm2.978-1.463c1.373-.743 2.413-2.174 2.79-3.81.155-.7.166-.959.066-1.712-.232-1.7-.919-2.433-2.291-2.443-1.473-.022-2.945 1.065-3.864 2.809-.62 1.206-.808 2.885-.432 4.004.222.668.753 1.292 1.262 1.486.665.247 1.65.107 2.469-.334Z" fill="#F7F6F3"></path>
    <path d="M55.283 36.2c-.908-.506-1.063-.765-1.063-1.712.011-.893.388-1.69 1.085-2.293.653-.56 1.185-.656 1.871-.333.73.344.996.84.974 1.754-.033 1.27-.753 2.336-1.793 2.648-.565.162-.675.15-1.074-.064Zm1.638-1.766c.244-.43.266-1.205.045-1.377-.089-.076-.355-.119-.576-.097-.587.043-.952.57-.908 1.27.034.452.067.495.42.603.5.161.765.053 1.02-.399ZM38.8 38.535c-.31-.333-.122-.732.52-1.055.852-.43.952-.29.365.517-.277.388-.543.71-.598.732-.044.01-.177-.075-.288-.194ZM59.81 38.568c.277-.85.466-1.206.798-1.497.21-.183 1.295-.785 2.413-1.334 1.107-.55 2.402-1.25 2.878-1.54.477-.301 1.074-.581 1.329-.624.531-.097 1.627-.13 1.627-.043 0 .14-.32.657-.52.829-.255.226-4.428 2.475-5.823 3.143-.565.269-1.318.656-1.683.872-.742.42-1.118.484-1.018.194ZM50.81 37.534c-.498-.28-.664-.462-.94-.99-.31-.603-.333-.721-.322-1.776.012-.98.056-1.26.355-2.088.199-.528.41-1.034.487-1.12.288-.333 1.86-1.108 1.86-.915 0 .033-.255.83-.576 1.744-.531 1.561-.576 1.765-.62 2.971-.033 1.098-.011 1.378.177 1.916.122.334.222.614.21.614-.01 0-.298-.162-.63-.356ZM10.492 37.233C9.252 36.598 8.3 34.8 8.3 33.089c0-1.496.576-3.53 1.318-4.661.465-.7 1.793-1.927 2.723-2.508.996-.624 6.974-3.95 10.904-6.06 2.47-1.324 10.24-5.598 13.672-7.514a455.499 455.499 0 0 1 3.432-1.905c.61-.334 1.982-1.098 3.045-1.69 1.062-.592 3.01-1.658 4.328-2.379 1.317-.71 2.59-1.42 2.823-1.571.244-.151.443-.237.465-.183.022.053-.033.312-.133.58a6.74 6.74 0 0 0-.243 1.131l-.078.668-.675.409c-1.207.732-4.617 2.658-6.155 3.466-.82.43-2.07 1.108-2.768 1.507-.697.398-2.092 1.173-3.1 1.722-1.007.56-2.8 1.55-3.985 2.207-1.982 1.108-3.664 2.034-9.742 5.36-1.184.646-3.1 1.7-4.262 2.336a569.026 569.026 0 0 1-3.543 1.937c-1.937 1.066-2.933 1.744-3.63 2.476-1.628 1.712-2.403 3.595-2.403 5.867 0 1.033.21 1.873.709 2.992.11.237 0 .226-.51-.043ZM46.836 34.477l-1.03-.484.908-.474c.499-.258 1.052-.57 1.23-.7.409-.28.453-.236.32.227-.055.194-.133.71-.177 1.14-.044.442-.11.797-.144.787-.033 0-.531-.227-1.107-.496ZM62.28 33.014c.044-.668.088-1.217.1-1.227.01-.022.265.14.564.344.299.205.575.377.62.377.033 0 .31.097.598.215.664.28.608.345-.875 1.012l-1.085.484.078-1.205Z" fill="#F7F6F3"></path>
    <path d="M35.49 33.498c-.034-.054-.92-.473-1.971-.936-4.794-2.12-12.93-6.007-12.93-6.179 0-.054.287-.258.642-.452.343-.194 1.372-.786 2.28-1.313l1.66-.958.388.236c.797.463 9.443 4.597 12.067 5.76 1.494.656 2.723 1.248 2.745 1.302.011.054-.21.226-.498.377-.288.15-1.306.72-2.28 1.259-1.716.969-1.982 1.087-2.104.904ZM67.106 32.626c-1.195-.398-1.86-1.206-2.247-2.702-.864-3.326 1.107-7.298 4.04-8.127.908-.258 2.281-.194 2.945.14 1.45.732 2.104 1.98 2.104 4.026 0 .926-.045 1.173-.377 2.078-.587 1.593-1.528 2.927-2.657 3.767-.586.43-2.147 1.023-2.723 1.012-.277 0-.764-.086-1.085-.194Zm2.28-1.42c1.14-.474 2.038-1.4 2.746-2.843 1.35-2.744.1-5.705-2.27-5.392-1.073.14-2.424 1.033-3.066 2.023-.454.7-.83 1.98-.897 3.047-.166 2.69 1.34 4.058 3.488 3.164Z" fill="#F7F6F3"></path>
    <path d="M68.136 29.3c-.498-.301-.919-.84-1.008-1.27-.188-.958.321-2.185 1.163-2.81.41-.3.564-.355 1.096-.355 1.195 0 1.738.635 1.66 1.938-.055 1.012-.509 1.873-1.217 2.293-.665.409-1.251.473-1.694.204Zm1.583-1.442c.664-.7.476-1.916-.299-1.916-.864 0-1.495 1.356-.897 1.937.31.302.897.28 1.196-.021ZM72.84 31.614c0-.409.809-1.517 1.374-1.894.276-.194 1.118-.646 1.86-1.023a84.995 84.995 0 0 0 2.523-1.302c1.85-1.001 1.993-1.055 2.702-1.066.498-.01.675.032.763.172.178.259-.143.57-1.062 1.012-.41.205-1.052.56-1.44.786-1.682 1.001-6.476 3.563-6.664 3.563-.033 0-.055-.118-.055-.248ZM63.874 30.785c-.952-.484-1.34-1.206-1.417-2.594-.056-1.087.166-2.347.586-3.25.244-.55.343-.647 1.074-1.034 1.273-.69 1.306-.635.653.958-.243.57-.531 1.356-.63 1.733-.266.947-.266 2.745 0 3.574.099.333.177.656.154.71-.022.054-.21.01-.42-.097ZM41.28 29.321a82.072 82.072 0 0 0-2.204-1.012c-3.542-1.528-11.757-5.414-11.823-5.586-.011-.054 1.018-.678 2.292-1.4L31.88 20l.333.236c.431.302 9.232 4.51 13.007 6.233.908.409 1.672.796 1.683.84.022.053-.299.28-.709.516-.885.495-2.822 1.604-3.31 1.895l-.343.204-1.262-.603ZM60.497 27.922c-.177-.14-.675-.42-1.096-.624l-.753-.355.742-.334c.41-.194.952-.485 1.218-.657.266-.172.498-.29.531-.269.022.022 0 .302-.055.614-.055.301-.133.86-.177 1.227l-.078.656-.332-.258ZM75.21 27.06c.044-.171.11-.763.144-1.302.033-.549.088-1 .121-1 .023 0 .3.15.598.333.31.172.82.42 1.152.538.332.119.597.259.597.312 0 .226-1.594 1.11-2.424 1.346-.244.075-.255.054-.188-.226ZM47.877 25.726c-.609-.29-2.026-.947-3.155-1.453a525.428 525.428 0 0 1-6.41-3.024c-2.39-1.152-4.395-2.089-4.45-2.089-.221 0-.078-.236.243-.409 1.097-.581 3.731-2.131 3.942-2.303l.232-.216.598.42c.653.474 6.83 3.434 12.044 5.78.941.431 1.938.905 2.203 1.055l.488.28-.488.237c-.265.13-1.262.7-2.225 1.249-.952.56-1.77 1.012-1.826 1-.044 0-.587-.236-1.196-.527ZM80.202 25.64c-1.24-.43-1.826-1-2.291-2.239-.21-.527-.244-.872-.255-2.088 0-1.668.1-2.045.93-3.595.709-1.324 1.572-2.207 2.646-2.723.808-.388.886-.41 1.96-.41 1.073 0 1.14.011 1.76.377 1.206.7 1.86 1.723 2.08 3.23.222 1.453-.22 3.089-1.25 4.574-1.007 1.475-2.58 2.637-3.996 2.96-.665.14-.953.13-1.584-.086Zm2.248-1.593c1.03-.495 2.037-1.55 2.69-2.81.432-.807.476-.99.52-1.85.078-1.615-.465-2.789-1.528-3.327-.41-.204-.62-.247-1.162-.204-.376.021-.83.118-1.007.215-1.185.592-2.502 2.174-2.923 3.477-.277.893-.299 2.368-.044 3.143.354 1.044 1.229 1.733 2.214 1.744.31 0 .72-.13 1.24-.388Z" fill="#F7F6F3"></path>
    <path d="M80.967 22.045c-.742-.484-.953-.915-.897-1.82.122-1.883 1.771-3.024 3.233-2.217 1.472.819.84 3.466-1.019 4.23-.52.216-.72.195-1.317-.193Zm1.638-1.367c.454-.517.587-.926.42-1.313-.254-.592-.918-.625-1.516-.076-.321.291-.354 1.195-.066 1.507.288.302.852.248 1.162-.118ZM76.538 23.477c-.94-.582-1.096-.948-1.096-2.702 0-1.184.045-1.453.31-2.228.366-1.023.886-1.583 1.916-2.024 1.007-.43.996-.452.32 1.12-.62 1.42-1.073 3.175-1.073 4.1 0 .388.077 1.012.177 1.39.11.376.177.699.155.72-.022.022-.343-.15-.709-.376ZM55.183 22.39c-.243-.119-1.837-.829-3.542-1.593-4.45-1.98-11.226-5.22-11.237-5.36 0-.076.089-.162.188-.194.499-.183 3.421-1.873 3.809-2.196l.442-.377.465.344c.52.366 5.193 2.66 8.713 4.252 3.709 1.69 6.078 2.81 6.078 2.885.01.032-.321.215-.72.398-.398.183-1.384.721-2.203 1.195-.808.474-1.495.861-1.506.85-.022 0-.243-.096-.487-.204ZM73.627 21.27c-.089-.097-.642-.41-1.23-.7l-1.084-.527.465-.172c.243-.097.852-.388 1.328-.657.488-.27.897-.484.93-.484.056 0-.1 2.142-.188 2.454-.066.236-.088.247-.221.086ZM61.051 18.558c-.487-.259-1.926-.937-3.21-1.507-2.735-1.228-4.307-1.96-8.137-3.779l-2.823-1.334.277-.205c.155-.108.675-.409 1.162-.657a27.421 27.421 0 0 0 1.96-1.13c.586-.377 1.118-.689 1.184-.689.055 0 .343.151.62.334.72.474 13.23 6.276 14.004 6.502.31.086.554.258.554.376 0 .097-4.517 2.594-4.639 2.573-.033-.01-.465-.226-.952-.485ZM67.195 14.693c-.82-.377-2.236-1.012-3.155-1.41a148.5 148.5 0 0 1-3.266-1.474 124.18 124.18 0 0 0-2.435-1.098c-1.617-.679-2.336-1.055-2.458-1.27-.077-.14-.1-.571-.055-1.195.221-3.197 1.826-5.243 4.893-6.254.653-.216 1.849-.237 2.779-.054.752.15 2.413.85 5.524 2.314 1.218.57 3.11 1.442 4.206 1.938 2.967 1.345 6.643 3.164 6.643 3.293 0 .054-.321.248-.72.41-.398.16-1.539.742-2.546 1.302a427.073 427.073 0 0 0-2.768 1.518c-.974.527-1.129.602-3.155 1.657-.664.345-1.34.722-1.483.83-.144.107-.321.193-.388.182-.066 0-.797-.312-1.616-.689Zm-.73-5.231c.21-.248.42-.592.464-.775.056-.28.023-.377-.276-.635-.189-.162-.465-.302-.61-.302-.708 0-1.383 1.13-1.007 1.68.177.269.51.452.853.462.1.011.354-.193.576-.43Zm-8.148-.98c.21-.258 1.018-2.163 1.018-2.422 0-.452-.72-.915-1.162-.742-.277.097-.974 1.647-1.03 2.27-.044.507-.022.582.255.787.343.258.741.301.919.107Z" fill="#F7F6F3"></path>
    <path d="M53.534 8.374c-.243-.161-.63-.365-.874-.43l-.443-.13.077-.828c.089-1.076.3-1.744.963-3.1.476-.937.698-1.249 1.462-2.002.597-.582 1.14-1.001 1.583-1.217C57.099.28 58.383 0 59.357 0c.642.01 2.026.226 2.148.344.022.033-.244.087-.598.119-.742.064-2.148.613-2.967 1.162-1.184.786-2.225 1.97-2.922 3.316-.388.753-.886 2.497-.886 3.121 0 .603-.11.668-.598.312Z" fill="#F7F6F3"></path>
    <path fill-rule="evenodd" clip-rule="evenodd" d="M.366 25.572c.152-.433.7-.57 1.17-.563 1.452.021 3.577.746 5.239 1.772.365.73.177 1.268-.564 1.611-1.776-.47-4.133-.761-5.715-1.802 0 0-.388-.283-.13-1.018ZM3.013 20.786c.147-.42.451-.585.67-.58.736.016 3.443 2.078 4.598 3.82-.071.869-.528 1.175-1.369.918a22.719 22.719 0 0 1-3.603-3.007c-.363-.285-.45-.707-.296-1.15ZM9.286 19.748c.142-.274.558-1.594 1.923-.84.892.77 1.216 2.18 1.434 3.393.221 1.053-.087 1.429-1.16 1.475-.961-1.223-2.59-3.274-2.197-4.028Z" fill="#F7F6F3"></path>
  </symbol>
</svg>